{"accessors" : [{"bufferView" : 0, "byteOffset" : 0, "componentType" : 5123, "count" : 10692, "type" : "SCALAR", "max" : [10691], "min" : [0]}, {"bufferView" : 1, "byteOffset" : 0, "componentType" : 5126, "count" : 10692, "type" : "VEC3", "max" : [0.07183749228715897, 0.5420844554901123, 2.394258737564087], "min" : [-0.008252990432083607, -0.5420850515365601, -0.0017179002752527595], "name" : "POSITION"}, {"bufferView" : 1, "byteOffset" : 12, "componentType" : 5126, "count" : 10692, "type" : "VEC3", "max" : [0.9887054562568665, 0.9923372268676758, 0.9892058372497559], "min" : [-1.0000044107437134, -0.9923372268676758, -0.9892009496688843], "name" : "NORMAL"}, {"bufferView" : 1, "byteOffset" : 24, "componentType" : 5126, "count" : 10692, "type" : "VEC2", "max" : [0.9735596776008606, -0.0030222032219171524], "min" : [0.0030222032219171524, -0.8971027135848999], "name" : "TEXCOORD_0"}], "asset" : {"generator" : "Aspose.3D 23.2", "version" : "2.0"}, "buffers" : [{"uri" : "data:application/octet-stream;base64,", "byteLength" : 363536}], "bufferViews" : [{"buffer" : 0, "byteOffset" : 0, "byteLength" : 21384, "target" : 34963}, {"buffer" : 0, "byteOffset" : 21388, "byteLength" : 342144, "byteStride" : 32, "target" : 34962}], "images" : [{"uri" : "D:\\3\\  \\chococlate_ready\\chococlate_ready\\Chocolate_milk\\Chocolate_milk_normal.png"}], "materials" : [{"name" : "M_chocolate_pbr", "pbrMetallicRoughness" : {"baseColorFactor" : [0.800000011920929, 0.800000011920929, 0.800000011920929, 1], "metallicFactor" : 0, "roughnessFactor" : 0}, "normalTexture" : {"index" : 0, "texCoord" : 0, "scale" : 1}, "emissiveFactor" : [0, 0, 0], "alphaMode" : "OPAQUE", "doubleSided" : false}], "meshes" : [{"primitives" : [{"attributes" : {"POSITION" : 1, "NORMAL" : 2, "TEXCOORD_0" : 3}, "indices" : 0, "material" : 0, "mode" : 4}], "name" : "Chocolate_milk"}], "nodes" : [{"matrix" : [8.341228485107422, 0, 0, 0, 0, -1.3589586130975637E-06, -8.34122848510731, 0, 0, 8.34122848510731, -1.3589586130975637E-06, 0, 0, 0, 0, 1], "mesh" : 0, "name" : "Chocolate_milk"}], "samplers" : [{"magFilter" : 9729, "minFilter" : 9729, "wrapS" : 10497, "wrapT" : 10497}], "scene" : 0, "scenes" : [{"nodes" : [0]}], "textures" : [{"sampler" : 0, "source" : 0, "name" : "normalmap_texture"}]}