{
    "asset" : {
        "generator" : "Khronos glTF Blender I/O v3.4.50",
        "version" : "2.0"
    },
    "scene" : 0,
    "scenes" : [
        {
            "name" : "Scene",
            "nodes" : [
                0
            ]
        }
    ],
    "nodes" : [
        {
            "mesh" : 0,
            "name" : "cookieLowPoly",
            "rotation" : [
                -0.6307933926582336,
                0.11704109609127045,
                -0.11889666318893433,
                0.7578025460243225
            ],
            "translation" : [
                0.0017706751823425293,
                0.3632781505584717,
                -0.03883671760559082
            ]
        }
    ],
    "materials" : [
        {
            "doubleSided" : true,
            "name" : "cookie1",
            "pbrMetallicRoughness" : {}
        }
    ],
    "meshes" : [
        {
            "name" : "cookie1.003",
            "primitives" : [
                {
                    "attributes" : {
                        "POSITION" : 0,
                        "TEXCOORD_0" : 1,
                        "NORMAL" : 2
                    },
                    "indices" : 3,
                    "material" : 0
                }
            ]
        }
    ],
    "accessors" : [
        {
            "bufferView" : 0,
            "componentType" : 5126,
            "count" : 771,
            "max" : [
                1.769814133644104,
                1.8021639585494995,
                0.7436524033546448
            ],
            "min" : [
                -1.7026718854904175,
                -1.8535897731781006,
                -0.8103488087654114
            ],
            "type" : "VEC3"
        },
        {
            "bufferView" : 1,
            "componentType" : 5126,
            "count" : 771,
            "type" : "VEC2"
        },
        {
            "bufferView" : 2,
            "componentType" : 5126,
            "count" : 771,
            "type" : "VEC3"
        },
        {
            "bufferView" : 3,
            "componentType" : 5123,
            "count" : 4254,
            "type" : "SCALAR"
        }
    ],
    "bufferViews" : [
        {
            "buffer" : 0,
            "byteLength" : 9252,
            "byteOffset" : 0,
            "target" : 34962
        },
        {
            "buffer" : 0,
            "byteLength" : 6168,
            "byteOffset" : 9252,
            "target" : 34962
        },
        {
            "buffer" : 0,
            "byteLength" : 9252,
            "byteOffset" : 15420,
            "target" : 34962
        },
        {
            "buffer" : 0,
            "byteLength" : 8508,
            "byteOffset" : 24672,
            "target" : 34963
        }
    ],
    "buffers" : [
        {
            "byteLength" : 33180,
            "uri" : "data:application/octet-stream;base64,"
        }
    ]
}
